<?xml version="1.0" encoding="utf-8"?>
<!-- Generator: Adobe Illustrator 22.0.1, SVG Export Plug-In . SVG Version: 6.00 Build 0)  -->
<svg version="1.1" id="Layer_1" xmlns="http://www.w3.org/2000/svg" xmlns:xlink="http://www.w3.org/1999/xlink" x="0px" y="0px"
	 viewBox="0 0 312.7 71" style="enable-background:new 0 0 312.7 71;" xml:space="preserve">
<title>Asset 3</title>
<g>
	<path d="M76.3,42.3c0.4-0.6,0.8-1.2,1.2-1.8c0.2-0.3,0.3-0.6,0.3-0.9c0-0.4,0.2-0.8,0.5-1c0.5-0.4,1-0.8,1.1-1.5
		c0-0.1,0.1-0.2,0.2-0.3c0.4-0.4,0.7-0.8,0.8-1.3c0.1-0.3,0.3-0.5,0.4-0.7s0.4-0.4,0.1-0.7c-0.3-0.6-0.2-0.7,0.2-1.3
		c0.1-0.1,0.2-0.3,0.3-0.4c-0.1-0.2-0.2-0.4-0.3-0.6c-0.2-0.3-0.4-0.2-0.5-0.1c-0.6,0.4-1.2,0.9-1.7,1.4c-0.2,0.2-0.6,0.5-0.9,0.8
		c-0.1,0.1-0.2,0-0.3-0.2c-0.1-0.1-0.1-0.2-0.2-0.3c-0.1,0.1-0.2,0.2-0.4,0.3c-0.4,0.4-0.6,0.7-0.4,1.2c0.1,0.1,0.1,0.3-0.1,0.4
		c-0.4,0.4-0.9,0.8-1.5,1.2c-0.2,0.1-0.4,0.2-0.6,0.3c-0.4-0.3-0.7,0.1-1,0.4c-0.2,0.2-0.2,0.4-0.2,0.7c-1.2,1.2-2.6,2.1-4,3.1
		c-0.8,0.5-1.5,1-2.3,1.5c-0.4,0.3-0.8,0.6-1.4,0.5c-0.1,0-0.3,0.1-0.3,0.1c-0.4,0.4-1,0.6-1.5,0.9c-0.5,0.3-1,0.7-1.5,0.9
		c-0.4,0.2-0.8,0.5-1.2,0.7c-0.5,0.3-1,0.6-1.6,0.7c-0.1,0.1-0.4,0-0.6-0.1c-0.3-0.2-0.5-0.4-0.6-0.7c-0.3-0.9-0.7-1.9-0.9-2.9
		c-0.2-0.8-0.3-1.7-0.1-2.5c0.1-0.3,0.3-0.6,0.6-0.7c0.8-0.3,1.4-0.6,2.1-1c0.6-0.4,1-0.7,1.5-1.2c0.5-0.5,1-0.9,1.5-1.3
		c0.7-0.4,1.2-0.9,1.7-1.4c0.8-0.8,1.4-1.5,2.2-2.3c0.6-0.7,1-1.4,1.2-2.2c0.1-0.3,0.1-0.4,0.2-0.5c0.5-0.7,0.7-1.6,1.2-2.3
		c0.1-0.2,0.1-0.4,0.1-0.6c-0.1-0.1-0.1-0.2-0.2-0.4c0.4-0.7,0.8-1.7,0.9-2.5c0.2-1,0.2-1.9-0.3-2.9c-0.2-0.4-0.5-0.7-0.8-1
		c-0.5-0.5-1.1-0.9-1.8-1.2c-0.4-0.2-0.7-0.3-1.1-0.4c-0.4-0.2-0.9-0.3-1.3-0.4c-1.3-0.2-2.5-0.3-3.7-0.3c-0.5,0-0.9,0.2-1.2,0.7
		c-0.3,0.7-0.8,1.2-1.3,1.7c-1.3,1.3-2.4,2.8-3.3,4.4c-0.5,0.9-0.9,1.7-1.3,2.5c-0.1,0.1-0.1,0.3-0.1,0.5s0.1,0.4,0.1,0.5
		c-0.1,0.3-0.2,0.6-0.2,0.9c-0.1,0.4-0.3,0.3-0.6,0.3s-0.3,0.1-0.4,0.3C53,29.6,53,29.8,53.2,30c0.3,0.4,0.4,0.5,0.2,0.8
		c-0.3,0.4-0.5,0.8-0.7,1.4c-0.3,0.7-0.4,1.5-0.6,2.4c0,0.2-0.1,0.4-0.2,0.5c-0.1,0.1-0.3,0.2-0.4,0.4c-0.1,0.1-0.1,0.1-0.2,0.2
		c-0.2,0.1-0.3,0.2-0.3,0.4c0,0.1,0,0.1,0,0.2c0,0-0.1,0.1-0.1,0.1c-0.1-0.1-0.2-0.2-0.3-0.3c-0.3-0.3-0.5-0.3-0.7-0.1
		c-0.4,0.4-0.7,0.7-1,1.2c-0.4,0.5-0.8,1.1-1.1,1.7c-0.4,0.7-0.7,1.2-1.1,1.8c-0.1,0.2-0.2,0.3,0.1,0.3c0.2,0,0.3,0,0.4,0.1
		c0.2,0,0.3,0.2,0.3,0.4c-0.1,0.3-0.3,0.6-0.4,0.9c-0.1,0.1-0.2,0.2-0.3,0.1c-0.1,0-0.1-0.1-0.1-0.1c-0.1-0.3-0.1-0.5-0.2-0.7
		c0-0.1-0.1-0.2-0.2-0.1c-0.6,0.6-0.9,1.2-1.5,1.8c-0.2,0.2-0.3,0.4-0.4,0.7c-0.6,0.9-1,1.8-1.7,2.6c-0.3,0.4-0.6,0.8-0.8,1.2
		c-1.1,1.8-2.6,3.1-4.1,4.5c-0.1,0.1-0.6,0.3-0.7-0.1c-0.4-1-0.5-2-0.4-3.1c0.1-0.5,0.1-1,0.2-1.5c0.2-1.4,0.3-2.7,0.6-4.1
		c0.3-1.5,0.8-2.9,1.3-4.3c0.3-1,0.7-2,1-3c0.4-1.4,0.8-2.8,1.3-4.1c0.9-2.4,1.9-4.8,2.8-7.2c0.8-2.1,1.7-4.2,2.6-6.4
		c0.8-1.8,1.7-3.7,2.5-5.6c0.2-0.3,0.3-0.7,0.4-1.1c0.1-0.4,0.2-0.8,0.3-1.2c0.2-0.4,0.4-0.9,0.7-1.4c0.4-0.8,0.8-1.7,1.1-2.5
		c0.2-0.4,0.1-0.9,0.3-1.3c0.2-0.5,0.4-0.9,0.6-1.3c0.2-0.5,0.3-1,0.5-1.5c0.2-0.5-0.2-1.3-0.7-1.5c-0.7-0.2-1.4-0.5-2-0.7
		C49.5,0,49,0,48.7,0.2c-0.2,0.1-0.5,0.2-0.8,0.1c-0.3,0-0.5,0-0.7,0.2c-0.2,0.1-0.3,0.1-0.4,0.1c-0.3,0-0.4,0.2-0.6,0.3
		c-0.8,1.7-1.6,3.3-2.4,5c-0.3,0.8-0.8,1.5-0.8,2.4c0,0.1-0.1,0.2-0.1,0.2c-0.4,0.3-0.5,0.7-0.7,1c-0.3,0.7-0.7,1.3-1,1.9
		c-0.4,0.8-0.7,1.4-1,2.1c-0.2,0.4-0.3,0.8-0.4,1.1c0,0.1,0.1,0.3,0.2,0.3c0.3,0.2,0.4,0.4,0.2,0.8c-0.1,0.1-0.2,0.2-0.2,0.3
		c-0.2,0.3-0.2,0.3-0.5-0.1c0-0.1-0.1-0.1-0.1-0.1c-0.2,0.4-0.6,0.9-0.6,1.4c0,0,0,0,0,0c-0.4,0.3-0.4,0.7-0.4,1.1
		c0,0-0.1,0-0.1,0.1c-0.4,0.7-0.8,1.4-1,2.3c-0.2,0.5-0.4,0.9-0.5,1.5c-0.1,0.7-0.6,1.4-0.8,2.1c0,0,0,0,0,0
		c-0.1,0.1-0.3,0.2-0.3,0.4c-0.4,0.9-0.7,2-1,3c-0.4,1.2-0.8,2.4-1.2,3.6c-0.4,1.2-0.8,2.3-1.2,3.6c-0.2,0.8-0.4,1.5-0.6,2.3
		c-0.3,0.8-0.4,1.5-0.6,2.4c-0.1,0.2-0.1,0.4-0.1,0.7c-0.3,1.5-0.5,3-0.6,4.5c-0.6,0.2-1.2,0.4-1.8,0.6c-1.2,0.4-2.4,0.8-3.6,1
		c-0.6,0.2-1.3,0.2-1.9,0.3c-0.4,0.1-0.8-0.3-0.9-0.7c-0.3-0.8-0.2-1.6-0.1-2.4c0.1-0.9,0.4-1.9,0.7-2.9c0.3-0.8,0.7-1.7,1-2.5
		c0.4-0.9,0.8-1.8,1.2-2.8c0.2-0.4,0.3-1,0.5-1.5c0.9-1.8,2-3.5,2.9-5.2c0.5-0.9,1-1.8,1.5-2.8c0.1-0.2,0.1-0.4,0-0.7
		c-0.2-0.4-0.1-0.7,0.2-1.1c0.3-0.5,0.6-1,0.9-1.5c0.1-0.3,0.1-0.6-0.1-0.9s-0.3-0.5-0.5-0.7c-0.2-0.2-0.3-0.3-0.5-0.4
		c-0.7-0.2-1.1-0.3-1.8-0.4c-0.3-0.1-0.7-0.1-0.9-0.2c-0.2-0.1-0.5-0.2-0.8-0.3c-0.2-0.1-0.5,0.1-0.7,0.2c-0.7,0.8-1.3,1.7-1.9,2.5
		c-0.4,0.6-0.9,1-1.4,1.7c-0.2,0.3-0.5,0.5-0.8,0.9c-0.2-0.4-0.5-0.9-0.6-1c-0.6-1-1.6-1.5-2.6-1.6c-1.3-0.2-2.8-0.4-4.3-0.8
		c-0.3-0.1-0.7-0.1-1,0c-0.3,0.1-0.5,0.1-0.8,0c-0.2-0.1-0.4,0-0.6,0.2c-0.5,0.6-1.2,1-1.9,1.6c-1.6,1.3-3,2.8-4.1,4.5
		c-1.3,1.9-2.4,3.7-3.5,5.8c-0.9,1.8-1.6,3.7-2,5.7c-0.2,0.9-0.2,1.7,0,2.6c0.1,0.4,0.3,0.9,0.7,1.2c0.2,0.1,0.3,0.2,0.4,0.4
		c0.3,0.3,0.5,0.6,0.9,1c0.3,0.3,0.6,0.7,0.9,1c0.3,0.3,0.6,0.5,1,0.7c0.6,0.3,1.2,0.6,2,0.8c0.6,0.2,1.3,0.2,1.9,0.1
		c1.2-0.1,2.3-0.5,3.2-1.4c0.3-0.3,0.6-0.5,0.9-0.8c0.6-0.3,1.1-0.7,1.5-1.2c0.4-0.4,0.9-0.8,1.3-1.3c0.1-0.2,0.4-0.4,0.6-0.6
		c0.4,0.4,0.8,1,1,1.8c0.1,0.3,0.2,0.5,0.3,0.7c0.1,0.2,0.2,0.4,0.4,0.7c0.8,1,1.8,1.9,2.7,2.9c0.5,0.5,1,1,1.7,1.3
		c0.4,0.2,1,0.3,1.5,0.4c0.3,0.1,0.7,0.2,1.1,0.2c1,0.1,1.9-0.1,2.6-0.7c0.5-0.3,1-0.8,1.7-0.9c0.3-0.1,0.6-0.2,0.9-0.3
		c0.2-0.1,0.5-0.2,0.7-0.3c0,1.3,0.3,2.6,0.5,3.8c0.3,1.3,0.9,2.3,1.9,3.2c0.5,0.4,1,1,1.6,1.5c0.2,0.1,0.3,0.2,0.5,0.3
		c0.6,0.2,2.8,0.9,3.4,0.9c0.1,0,0.3,0,0.4-0.1c0.3-0.2,0.4-0.5,0.7-0.7c0.7-0.4,1.3-0.9,1.8-1.5c0.8-0.9,1.5-1.9,2.4-2.6
		c0.1-0.1,0.1-0.1,0.1-0.2c0.6-0.9,1.3-1.7,2-2.4c0.2-0.2,0.3-0.4,0.5-0.6c0.8-1,1.5-2.1,2.3-3.2c0.6-0.8,1.2-1.4,1.5-2.3
		c0.6-0.5,1-1.2,1.5-1.8c0.2,0.5,0.4,0.9,0.6,1.4c0.5,0.9,1,1.7,1.6,2.5c0.4,0.5,0.9,1,1.3,1.4c0.7,0.7,2.8,2.3,3.7,2.7
		c1.3,0.5,2.6,0.9,4,0.4c0.3-0.1,0.6-0.1,0.9-0.1c0.5,0,0.9-0.1,1.3-0.3c0.6-0.2,1.1-0.5,1.5-0.9c0.1-0.1,0.3-0.2,0.5-0.3
		c1-0.3,1.9-0.9,2.8-1.5c1.2-0.8,2.3-1.7,3.4-2.4c0.6-0.4,1-0.8,1.5-1.3C75.3,43.4,75.8,42.9,76.3,42.3z M39.1,17.3
		c0.2-0.1,0.3-0.1,0.3,0c0,0.1,0,0.2,0,0.2c-0.1,0.1-0.1,0.2-0.1,0.3C39.2,17.9,39.1,18,39,18c-0.1-0.1-0.2-0.2-0.2-0.3
		c-0.1-0.1,0-0.2,0-0.4C38.9,17.3,39,17.3,39.1,17.3z M38.6,19.1c0-0.1-0.1,0-0.1-0.1c0-0.1-0.1-0.1-0.1-0.2c0-0.1,0-0.2,0-0.3
		c0.1,0,0.2,0.1,0.2,0.2C38.7,18.8,38.7,19,38.6,19.1z M37.4,21.9c0-0.1,0.2-0.1,0.3-0.2c0-0.2-0.1-0.4,0-0.6
		c0.1-0.4,0.3-0.8,0.5-1.3c0.1,0.2,0.2,0.3,0.2,0.4c-0.1,0.5-0.2,1-0.6,1.4c-0.1,0-0.1,0-0.2,0.1c-0.1,0.1,0,0.2-0.1,0.3
		c-0.1,0.2-0.2,0.2-0.2,0.2C37.3,22.1,37.3,22,37.4,21.9z M19.5,28.1c-0.1,0.2-0.2,0.3-0.4,0.4c-0.3,0.3-0.4,0.5-0.6,1
		c-0.1,0.4-0.2,0.6-0.2,1.1c-0.1,0.3-0.3,0.4-0.6,0.6c-0.3,0.2-0.1,0.5-0.2,0.8c-0.1,0.2-0.4,0.2-0.6,0.4c-0.1,0.2-0.1,0.3-0.2,0.4
		c-0.2,0.1-0.3,0.2-0.3,0.3c-0.2,0.4-0.2,0.7-0.6,1c-0.1,0.1-0.2,0-0.2-0.1c0-0.2-0.1-0.4-0.4-0.2c-0.5,0.3-0.9,0.7-1.3,1.2
		c-0.3,0.3-0.6,0.7-0.8,1.1C13,36.4,13,36.6,13,36.8c0,0.4-0.2,0.3-0.6,0.7c-0.3,0.2-0.5,0.4-0.8,0.6c-0.9,0.7-1.7,1.5-2.5,2.3
		c-0.7,0.6-1.4,1.3-2.1,1.8c-0.1,0.1-0.2,0.1-0.3-0.1c-0.1-0.2-0.1-0.4,0-0.6c0.1-0.5,0.3-1,0.5-1.5c0.5-1.3,1-2.5,1.5-3.9
		c0.1-0.2,0.2-0.5,0.3-0.7c0.2-0.3,0.3-0.7,0.1-1c-0.1-0.1,0-0.3,0-0.4c0.1-0.2,0.2-0.3,0.3-0.5c0.7-1,1.4-2.1,1.9-3.2
		c0.2-0.4,0.6-0.9,0.9-1.3c0.4-0.4,0.8-0.9,1.2-1.4c0.4-0.5,0.9-0.9,1.5-1.2c0.8-0.4,1.7-0.8,2.6-1c0.3-0.1,1-0.1,1.2,0.4
		c0.3,0.7,0.6,1.3,0.8,2C19.6,27.8,19.6,28,19.5,28.1z M33,35c-0.1-0.1-0.1-0.1-0.1-0.2c-0.1-0.4,0-0.6,0.3-0.7c0,0.2,0,0.5,0,0.7
		C33.2,35,33.1,35,33,35z M33.3,34c0-0.2,0-0.3,0.1-0.3C33.7,34,33.5,34,33.3,34z M35.5,27.8c-0.1,0.1-0.1,0.1-0.1,0.1
		c-0.1,0-0.1-0.1-0.1-0.1c-0.1-0.3,0-0.6,0.3-0.7C35.6,27.2,35.7,27.5,35.5,27.8z M35.7,26.9c0-0.2,0-0.3,0.1-0.5
		c0-0.1,0.1-0.2,0.3-0.3C36,26.4,36,26.7,35.7,26.9z M36.4,25.5c-0.1,0.3-0.1,0.5-0.3,0.6c0-0.5,0-0.9,0-1.4
		C36.4,24.8,36.5,25.1,36.4,25.5z M49,38.4C49,38.4,49,38.4,49,38.4c0,0,0,0.1-0.1,0.1C48.9,38.5,49,38.5,49,38.4z M49.8,37.6
		c-0.1,0.4-0.3,0.6-0.7,0.7c0-0.3,0.1-0.7,0.4-0.9c0.1-0.1,0.2-0.1,0.3,0C49.9,37.4,49.9,37.6,49.8,37.6z M59.2,28.1
		c0.5-1,0.9-2.1,1.4-3.2c0.2-0.4,0.5-0.8,0.7-1.2c0.3-0.5,0.7-1,0.9-1.5c0.1-0.2,0.2-0.3,0.4-0.4c0.6-0.3,0.9-0.7,1.4-1.2
		c0.6-0.6,0.6-0.4,1.3,0.1c0.2,0.1,0.3,0.3,0.3,0.5c0.1,0.3,0,0.7,0,1c0.1,1.2-0.2,2.2-0.8,3.2c-1.3,2.3-2.9,4.3-5,6
		c0,0-0.1,0.1-0.1,0.1c-0.1-0.1-0.1-0.2-0.2-0.2c-0.2-0.2-0.4-0.4-0.6-0.4c0.1-0.5,0.2-0.9,0.5-1.3C59.5,29,59.3,28.6,59.2,28.1z"/>
	<path d="M103.3,20.4c0.1-0.2,0-0.4-0.1-0.5c-0.1-0.3-0.3-0.6-0.5-0.8c-0.2-0.2-0.5-0.3-0.8-0.4c-0.3-0.1-0.6-0.2-0.9-0.4
		c-0.3-0.2-0.6-0.2-0.9-0.2c-0.3,0-0.7,0-1,0c-0.4-0.1-0.8-0.1-1.2-0.3c-0.2-0.2-0.4-0.1-0.5,0c-0.4,0.4-0.8,0.8-1.2,1.2
		c-1.2,1.4-2.5,2.8-3.6,4.1c-1.4,1.8-2.8,3.5-4.1,5.3c-0.3,0.5-0.7,0.9-1.1,1.4c-0.1,0.1-0.3,0.1-0.4-0.1c-0.3-0.7-0.7-1.4-1.2-2
		c-0.2-0.2-0.2-0.5-0.2-0.8c-0.1-1-0.4-2-1.1-2.9c-0.1-0.2-0.2-0.4-0.3-0.6c-0.4-0.4-0.6-0.9-0.6-1.4c0-0.2-0.2-0.3-0.3-0.5
		c-0.2-0.2-0.4-0.4-0.7-0.7c-0.3-0.3-0.7-0.4-1.1-0.4c-0.4-0.1-0.9-0.1-1.4,0c-0.2,0.1-0.5,0.3-0.5,0.5c0.1,0.6,0.1,1.2,0.2,1.8
		c0.3,1.3,0.6,2.7,0.9,4c0.2,1,0.6,2,1,3c0.6,1.1,1,2.3,1.7,3.4c0.1,0.2,0.2,0.4,0.2,0.5c0.2,0.3,0.1,0.7-0.1,0.9
		c-0.3,0.6-0.8,1.1-1.1,1.7c-0.4,0.9-1,1.8-1.6,2.5c-0.3,0.3-0.4,0.5-0.6,0.8c-0.5,1-1.2,2-1.9,3c-1.1,1.5-2.3,3.1-3.3,4.7
		c-0.4,0.6-0.5,1.6,0.1,2.2c0.5,0.4,1,0.8,1.5,1.3c0.3,0.3,0.7,0.4,1,0.5c0.4,0.2,0.8,0.1,1.2,0c0.3-0.1,0.5-0.3,0.7-0.6
		c0.3-0.3,0.5-0.6,0.8-0.9c0.2-0.1,0.4-0.2,0.6-0.2c0.3,0.1,0.6-0.1,0.9-0.3c0.9-0.9,1.8-1.8,2.4-2.9c0.6-0.8,1.2-1.7,1.7-2.4
		c0.7-1,1.5-1.9,2.3-2.8c0.2-0.2,0.5-0.2,0.7,0.1c0.8,1,1.6,2.1,2.5,3.1c1.4,1.4,2.6,2.8,4.2,4.1c0.9,0.8,1.9,1.5,3,2.2
		c0.2,0.1,0.4,0.2,0.6,0.2c0.7,0.1,1.3,0.1,2-0.1c0.2-0.1,0.3-0.5,0-0.7c-1.1-0.4-1.7-1.2-2.4-2c-0.4-0.4-0.7-0.8-1-1.3
		c-0.2-0.2-0.4-0.4-0.6-0.7c-0.3-0.5-0.6-0.8-1-1.3c-0.3-0.3-0.4-0.5-0.6-0.8c-0.6-1-1.3-1.8-2-2.7c-0.8-1-1.5-2-2.3-3
		c-0.3-0.3-0.3-0.7-0.1-1.1c0.2-0.2,0.3-0.4,0.4-0.7c0.4-0.7,0.9-1.3,1.4-1.9c0.9-1.3,1.9-2.5,2.9-3.7c0.7-0.8,1.4-1.7,1.9-2.6
		c0.2-0.3,0.3-0.5,0.6-0.8c1.5-1.8,2.9-3.6,4.6-5.2c0.2-0.2,0.4-0.6,0.3-0.9C103.2,21,103.2,20.8,103.3,20.4z M82.4,39
		c-0.1,0.3-0.2,0.6-0.6,0.6c-0.1,0-0.1,0-0.2-0.1c-0.1,0-0.1-0.1-0.1-0.1c0.2-0.4,0.5-0.7,0.8-1.1C82.4,38.7,82.4,38.8,82.4,39z"/>
	<path d="M171.6,22.5c0.3,0.3,0.8,0.4,1.1,0.3c0.6-0.4,1.3-0.8,1.9-1.1c0.1-0.1,0.2-0.4,0.1-0.5c-0.1-0.2-0.2-0.3-0.3-0.6
		c-0.6-0.9-1.4-1.3-2.4-1.3c-0.8-0.1-1.5-0.1-2.2,0c-0.8,0.1-1.5,0.2-2.3,0.5c-0.4,0.2-0.8,0.3-1.1,0.6c-0.8,0.6-1.5,1.2-2.3,1.6
		c-0.3-0.7-0.4-1.7-0.2-2.4c0.2-0.9,0.4-1.7,0.5-2.6c0.1-0.9-0.6-1.6-1.5-1.8c-0.6-0.1-1.3-0.1-2,0.1c-0.3,0-0.6,0.2-0.9,0.2
		c-1.6,0-1.5,1.4-1.7,2.8c-0.1,0.9-0.1,1.7-0.2,2.6c-0.3,1-0.5,2-0.5,3.1c0,0.2-0.1,0.5-0.1,0.8c-0.2,0.5-0.3,1.2-0.4,1.8
		c-0.2,1-0.4,2-0.5,3.1c0,0.2-0.1,0.3-0.2,0.5c-0.3,0.7-0.3,1.3-0.4,2c-0.1,1.2-0.3,2.5-0.7,3.7c-0.1,0.3-0.2,0.6-0.3,0.9
		c-0.1,0.6-0.1,1.2-0.2,1.8c-0.2,0.6-0.3,1.3-0.4,1.9c-0.1,1-0.2,2-0.2,3c0,0.4-0.1,0.8-0.1,1.2c-0.9,0.3-1.7,0.6-2.6,0.9
		c-1.2,0.4-2.4,0.8-3.6,1c-0.6,0.2-1.3,0.2-1.9,0.3c-0.4,0.1-0.8-0.3-0.9-0.7c-0.3-0.8-0.2-1.6-0.1-2.4c0.1-0.9,0.4-1.9,0.7-2.9
		c0.3-0.8,0.7-1.7,1-2.5c0.4-0.9,0.8-1.8,1.2-2.8c0.2-0.4,0.3-1,0.5-1.5c0.9-1.8,2-3.5,2.9-5.2c0.5-0.9,1-1.8,1.5-2.8
		c0.1-0.2,0.1-0.4,0-0.7c-0.2-0.4-0.1-0.7,0.2-1.1c0.3-0.5,0.6-1,0.9-1.5c0.1-0.3,0.1-0.6-0.1-0.9s-0.3-0.5-0.5-0.7
		c-0.2-0.2-0.3-0.3-0.5-0.4c-0.7-0.2-1.1-0.3-1.8-0.4c-0.3-0.1-0.7-0.1-0.9-0.2c-0.2-0.1-0.5-0.2-0.8-0.3c-0.2-0.1-0.5,0.1-0.7,0.2
		c-0.7,0.8-1.3,1.7-1.9,2.5c-0.4,0.6-0.9,1-1.4,1.7c-0.2,0.3-0.5,0.5-0.8,0.9c-0.2-0.4-0.5-0.9-0.6-1c-0.6-1-1.6-1.5-2.6-1.6
		c-1.3-0.2-2.8-0.4-4.3-0.8c-0.3-0.1-0.7-0.1-1,0c-0.3,0.1-0.5,0.1-0.8,0c-0.2-0.1-0.4,0-0.6,0.2c-0.5,0.6-1.2,1-1.9,1.6
		c-1.6,1.3-3,2.8-4.1,4.5c-1.3,1.9-2.4,3.7-3.5,5.8c-0.9,1.8-1.6,3.7-2,5.7c-0.2,0.9-0.2,1.7,0,2.6c0.1,0.4,0.3,0.9,0.7,1.2
		c0.2,0.1,0.3,0.2,0.4,0.4c0.3,0.3,0.5,0.6,0.9,1c0.3,0.3,0.6,0.7,0.9,1c0.3,0.3,0.6,0.5,1,0.7c0.6,0.3,1.2,0.6,2,0.8
		c0.6,0.2,1.3,0.2,1.9,0.1c1.2-0.1,2.3-0.5,3.2-1.4c0.3-0.3,0.6-0.5,0.9-0.8c0.6-0.3,1.1-0.7,1.5-1.2c0.4-0.4,0.9-0.8,1.3-1.3
		c0.1-0.2,0.4-0.4,0.6-0.6c0.4,0.4,0.8,1,1,1.8c0.1,0.3,0.2,0.5,0.3,0.7c0.1,0.2,0.2,0.4,0.4,0.7c0.8,1,1.8,1.9,2.7,2.9
		c0.5,0.5,1,1,1.7,1.3c0.4,0.2,1,0.3,1.5,0.4c0.3,0.1,0.7,0.2,1.1,0.2c1,0.1,1.9-0.1,2.6-0.7c0.5-0.3,1-0.8,1.7-0.9
		c0.3-0.1,0.6-0.2,0.9-0.3c0.7-0.2,1.2-0.7,1.4-1.3c0-0.1,0.1-0.3,0.1-0.4c0,0.3,0.1,0.6,0.1,1c-0.1,0.7,0.3,1,0.9,1.4
		c0.6,0.2,1.2,0.6,1.8,0.9c0.3,0.1,0.5,0.3,0.9,0.3c0.9,0.2,1.6-0.1,1.8-1.1c0.3-0.8,0.3-1,0.4-2c0.1-0.5,0.1-0.9,0.3-1.4
		c0.2-0.4,0.2-0.9,0.3-1.4c0.2-2.6,0.7-5.2,1.3-7.8c0.1-0.6,0.3-1,0.4-1.5c0.5-1.4,1-2.9,1.7-4.3c0.5-1.2,1-2.4,1.4-3.6
		c0.4-1.1,1-2,1.8-2.9c0.7-0.7,1.5-1.3,2.3-1.9c0.4-0.2,0.7-0.5,0.9-0.8c0.2-0.1,0.3-0.1,0.5,0.1C171.2,21.9,171.5,22.3,171.6,22.5z
		 M142.3,28.1c-0.1,0.2-0.2,0.3-0.4,0.4c-0.3,0.3-0.4,0.5-0.6,1c-0.1,0.4-0.2,0.6-0.2,1.1c-0.1,0.3-0.3,0.4-0.6,0.6
		c-0.3,0.2-0.1,0.5-0.2,0.8c-0.1,0.2-0.4,0.2-0.6,0.4c-0.1,0.2-0.1,0.3-0.2,0.4c-0.2,0.1-0.3,0.2-0.3,0.3c-0.2,0.4-0.2,0.7-0.6,1
		c-0.1,0.1-0.2,0-0.2-0.1c0-0.2-0.1-0.4-0.4-0.2c-0.5,0.3-0.9,0.7-1.3,1.2c-0.3,0.3-0.6,0.7-0.8,1.1c-0.2,0.3-0.2,0.5-0.2,0.7
		c0,0.4-0.2,0.3-0.6,0.7c-0.3,0.2-0.5,0.4-0.8,0.6c-0.9,0.7-1.7,1.5-2.5,2.3c-0.7,0.6-1.4,1.3-2.1,1.8c-0.1,0.1-0.2,0.1-0.3-0.1
		c-0.1-0.2-0.1-0.4,0-0.6c0.1-0.5,0.3-1,0.5-1.5c0.5-1.3,1-2.5,1.5-3.9c0.1-0.2,0.2-0.5,0.3-0.7c0.2-0.3,0.3-0.7,0.1-1
		c-0.1-0.1,0-0.3,0-0.4c0.1-0.2,0.2-0.3,0.3-0.5c0.7-1,1.4-2.1,1.9-3.2c0.2-0.4,0.6-0.9,0.9-1.3c0.4-0.4,0.8-0.9,1.2-1.4
		c0.4-0.5,0.9-0.9,1.5-1.2c0.8-0.4,1.7-0.8,2.6-1c0.3-0.1,1-0.1,1.2,0.4c0.3,0.7,0.6,1.3,0.8,2C142.4,27.8,142.4,28,142.3,28.1z"/>
	<path d="M226.3,20.1c-0.2-0.3-0.3-0.5-0.6-0.8c-0.5-0.4-1.6-1-2.5-1.1c-0.4-0.1-0.9,0-1.4,0.2c-0.2,0.1-0.4,0-0.5-0.1
		c-0.4-0.2-0.9-0.2-1.4-0.2c-0.5,0-1,0.1-1.5,0.3c-0.3,0.1-0.7,0.1-1,0c-0.4-0.2-0.9-0.2-1.3-0.2c-0.5,0.1-0.9,0.1-1.4,0.1
		c-0.3,0-0.5,0.1-0.7,0.3c-0.5,0.5-1,1.1-1.4,1.7c-1,1.3-1.9,2.7-2.7,4.1c-0.3,0.6-0.7,1.2-1,1.7c-0.2,0.4-0.4,0.7-0.5,1.1
		c-0.3,0.7-0.6,1.3-1,1.9c-0.3,0.4-0.5,0.9-0.7,1.4c-0.5,0.7-0.7,1.2-1.2,2.4c-0.4,1.3-0.8,2.5-1,3.7c-0.1,0.3-0.1,0.6-0.2,0.9
		c-0.7,0.5-1.3,1-2,1.4c-1.6,1-3.2,1.9-5,2.9c-1.8,1-3.6,1.8-5.6,2.6c-0.7,0.3-1.3,0.4-2.2,0.6c-0.6,0.1-1.3,0.2-1.8,0.1
		c-0.5-0.1-0.9-0.2-1.2-0.6c-0.6-0.8-1-1.7-1.3-2.6c-0.4-1.4-0.9-2.9-1.7-4.2c-0.3-0.5-0.2-0.7,0.2-1c1-0.7,1.9-1.5,2.8-2.5
		c1.2-1.3,2.3-2.8,3.4-4.1c1-1.4,2-2.8,3-4.2c0.8-1.1,1.5-2.3,2.5-3c0.2-0.2,0.3-0.3,0.4-0.4c0.3-0.4,0.7-0.7,1-0.9
		c0.2-0.1,0.2-0.3,0.2-0.5c-0.2-0.6-0.6-0.9-1.2-1.1c-0.4-0.1-0.8-0.2-1.2-0.2c-1,0-2,0-3,0c-0.4,0-0.8,0.1-1.1,0.3
		c-0.5,0.6-1,1.2-1.4,1.8c-0.8,1.3-1.8,2.6-2.6,3.9c-1,1.5-2.3,2.9-3.4,4.3c-0.2,0.2-1,0.8-1,0.1c0-0.3,0.1-0.6,0.1-0.8
		c0.2-0.7,0.3-1.3,0.4-1.9c0.1-0.4,0.1-0.8,0.2-1.2c0.4-2,1-3.8,1.2-5.8c0.3-0.7,0.6-1.5,0.6-2.3c0-0.3,0-0.7,0.1-1
		c0.3-1.2,0.6-2.3,1-3.4c0.1-0.2,0.1-0.4,0.1-0.5c-0.1-0.6-0.1-1.2,0.1-1.8c0.3-1.3,0.8-2.6,1.4-3.7c0.1-0.2,0.2-0.5,0.3-0.7
		c0.2-0.6-0.2-1.7-1-1.9c-0.2-0.1-0.5-0.2-0.8-0.3c-0.4-0.2-0.8-0.2-1.3-0.1c-0.7,0.2-1.5,0.3-2,1c-0.3,0.4-0.4,0.8-0.7,1.3
		c-0.3,1-0.7,2-1,3c-0.3,1.5-0.9,2.9-1.5,4.3c-0.3,0.7-0.6,1.4-0.8,2.2c-0.2,0.6-0.3,1.2-0.4,1.7c-0.4,1.8-1,3.4-1.3,5.2
		c0.1,0.1,0.3,0.2,0.4,0.4c0.2,0.2,0.1,0.4,0,0.6c-0.2,0.4-0.5,0.6-0.9,1c-0.4,0.6-0.6,1.4-0.4,2c0.1,0.6,0.2,0.9,0.3,1.5
		c-0.1,0.5-0.2,1-0.4,1.5c-0.1,0.4-0.2,0.8-0.3,1.2c-0.2,0.9-0.4,1.9-0.7,2.9c-0.3,1.6-0.7,3.2-0.9,4.7c-0.2,0.8-0.3,1.4-0.5,2.3
		c-0.1,0.1-0.2,0.2-0.3,0.2c0.1,0.2,0.1,0.4,0.1,0.6c0,0.2-0.1,0.8-0.3,0.8c-0.2,0-0.2-0.7-0.1-0.9c0.1-0.3,0.1-0.5,0.2-0.7
		c0.2-0.2,0-0.4-0.1-0.4c-0.2,0-0.4,0.2-0.4,0.3c-0.3,0.6-0.4,1.2-0.5,1.9c0,0.7-0.2,1.3-0.3,1.9c-0.1,0.7-0.2,1.3-0.2,2
		c-0.2,1.1-0.3,2.1-0.4,3.3c-0.1,0.9-0.3,1.4-0.1,2.3c0.1,0.2,0.1,0.4-0.1,0.8c-0.4,1.1-0.2,2.3-0.1,3.4c0.2,0.8,0.3,1.6,0.4,2.4
		c0.1,0.6,0.2,1.2,0.3,1.8c0.3,1.1,0.9,2,1.7,2.9c0.1,0.1,0.3,0.3,0.4,0.4c0.7,0.4,1.3,0.7,1.9,0.6c0.2-0.1,0.4,0,0.7,0.1
		c0.2,0.1,0.4-0.1,0.4-0.3c-0.1-0.8,0.1-1.4,0.5-2c0.2-0.3,0.3-0.8,0.3-1.2c0-1.1,0-2.3-0.1-3.4c0-0.3,0.1-0.7,0.2-0.9
		c0.1-0.3,0.2-0.7,0.2-1c0.1-1,0.1-2,0.1-3.1c0-0.5,0.1-0.9,0.1-1.4c0.1-0.5,0.2-1,0.2-1.5c0.1-0.6,0.1-1,0.2-1.6
		c0.2-0.8,0.4-1.5,0.7-2.3c0.2-0.3,0.1-0.6,0-0.9c-0.1-0.1-0.1-0.3-0.1-0.4c0.1-0.7,0.2-1.4,0.4-2.1c0.2-1,0.4-2.1,0.7-3.1
		c0-0.1,0.2-0.2,0.3-0.2c0.2,0,0.4,0.2,0.5,0.4c0.3,0.9,0.5,1.6,0.8,2.5c0.1,0.2,0.2,0.4,0.3,0.7c0.5,0.7,1,1.2,1.7,1.7
		c0.7,0.4,1.3,0.9,1.9,1.4c0.4,0.4,0.9,0.8,1.5,0.9c0.9,0.3,1.7,0.5,2.6,0.8c0.3,0.1,0.7,0.1,1,0.2c0.2,0,0.4,0,0.6,0
		c0.3-0.1,0.6-0.2,0.9-0.3c1.5-0.2,2.9-0.8,4.2-1.6c1.2-0.7,2.3-1.5,3.5-2.3c0.2-0.1,0.3-0.2,0.4-0.4c0.3-0.8,0.8-1.3,1.4-1.5
		c0.1-0.1,0.2-0.2,0.3-0.3c0.2-0.5,0.5-0.8,1-1.1c0.3-0.1,0.5-0.4,0.7-0.7c0,0.6,0,1.2,0,1.8c0.1,0.9,0.4,1.8,0.8,2.6
		c0.3,0.5,0.5,0.9,1,1.2c0.7,0.4,1.3,0.9,1.8,1.5c0.2,0.2,0.3,0.4,0.5,0.5c0.6,0.3,1,0.8,1.5,1.2c0.2,0.2,0.5,0.3,0.8,0.3
		c0.4,0,0.9,0,1.3,0.2c0.3,0.2,0.7,0.2,1,0.2c0.7,0,1.3-0.2,1.9-0.4c0.5-0.1,0.9-0.4,1.2-0.9c0.1-0.2,0.2-0.4,0.3-0.5
		c0.8-0.6,1.4-1.3,2.1-1.8c1.1-0.8,2-1.9,3-2.9c0.2-0.2,0.2-0.3,0.1-0.6c-0.2-0.2-0.3-0.4-0.1-0.7c0.5-0.8,1-1.7,1.6-2.5
		c1-1.6,1.9-3.3,2.4-5.1c0.4-1.3,0.7-2.5,1-3.9c0.2-0.8,0.5-1.5,0.4-2.3c0.4-0.6,0.4-1.3,0.4-1.9c0-0.1,0-0.3,0.1-0.4
		c0.4-0.9,0.3-1.9,0.1-2.9C227.1,22,226.8,21.1,226.3,20.1z M172.8,44.2c-0.1,0.4-0.1,0.7-0.2,1.1c0,0.6,0,1.2-0.2,1.8
		c-0.1,0.4-0.2,0.9-0.3,1.4c-0.1,0.2-0.2,0.2-0.2,0c0-0.6-0.1-1.1-0.1-1.6c0-0.1,0-0.3,0.1-0.4c0.5-0.6,0.4-1.3,0.4-2
		c0-0.2,0.1-0.3,0.1-0.4C172.7,43.8,173,43.9,172.8,44.2z M221.6,34.1c0,0.1-0.1,0.1-0.1,0.2c-0.1,0-0.2-0.1-0.2-0.2
		c0-0.2,0.1-0.3,0.2-0.3c0.1,0,0.1,0.1,0.1,0.2C221.6,34,221.6,34,221.6,34.1z M221.8,29.3c-0.2,0.4-0.3,0.9-0.4,1.3
		c-0.4,1.7-0.9,3.1-1.6,4.7c-0.5,1.2-1.2,2.3-1.9,3.4c-0.6,0.8-1.1,1.7-1.7,2.5c-0.3,0.4-0.5,0.8-1,0.9c-0.1,0.1-0.2,0.1-0.3,0.2
		c-0.4,0.7-1.2,1-1.7,1.6c-0.2,0.2-0.6,0.4-0.8,0.6c-0.4,0.3-0.8,0.7-1.3,0.9c-0.2,0.1-0.4,0.2-0.5,0.2c-0.3,0-0.7-0.2-0.8-0.5
		c-0.1-0.5-0.2-1-0.2-1.6c0-0.4,0-0.9-0.2-1.3c-0.1-0.2-0.1-0.4-0.1-0.6c0-0.6,0.2-1.3,0-1.9c-0.1-0.3,0.1-0.5,0.1-0.8
		c0.4-1.3,0.8-2.6,1.4-3.9c0.2-0.5,0.4-1.1,0.7-1.7c0.1-0.2,0.2-0.5,0.2-0.7c-0.1-0.5,0.1-0.9,0.3-1.3c0.6-1.2,1.2-2.4,1.8-3.5
		c0.3-0.6,0.7-1.2,1.1-1.9c0.7-1.2,1.6-2.1,2.4-3.1c0.6-0.7,1.3-1.2,2-1.7c0.3-0.2,0.5-0.3,0.9-0.4c0.4-0.1,0.8-0.2,1.2-0.2
		c0.4,0.3,0.3,0.7,0.4,1.1c0.1,0.2,0.1,0.4,0.2,0.7c0.2,1.9,0.2,3.9,0,5.7C222,28.6,221.9,28.9,221.8,29.3z M222.3,31.8
		c-0.3-0.2-0.1-0.3,0-0.4c0,0,0.1,0,0.1,0c0,0.1,0,0.2,0,0.3C222.4,31.7,222.3,31.7,222.3,31.8z M222.5,31.2c0-0.2,0-0.4,0-0.7
		c0-0.1,0.1-0.1,0.2-0.2c0.1,0.1,0.1,0.2,0.1,0.3C222.8,30.9,222.7,31.1,222.5,31.2z M223,28.8c-0.1,0.1-0.2,0.2-0.3,0.3
		c-0.1,0.1-0.3-0.2-0.3-0.4c0.1-0.1,0.1-0.2,0.1-0.4c0.1-0.4,0.2-0.9,0.3-1.3c0-0.3-0.1-0.7-0.1-1c0-0.6-0.1-1.2-0.1-1.8
		c-0.1-0.6-0.1-1-0.1-1.7c0-0.2,0.1-0.5,0.1-0.7c0.1-0.4-0.1-0.8-0.2-1.2c0-0.1,0.1-0.3,0.2-0.3c0.1,0,0.3,0.1,0.3,0.2
		c0.1,0.1,0.2,0.2,0.2,0.3c0.1,0.2,0.1,0.4,0.1,0.5c0.1,0.8,0.3,1.5,0.2,2.5c-0.1,0.7-0.1,1.4,0,2.2C223.6,27,223.4,27.9,223,28.8z"
		/>
	<path d="M246.5,42.1c0.6-0.8,1-1.7,1.6-2.5c1-1.6,1.9-3.3,2.4-5.1c0.4-1.3,0.7-2.5,1-3.9c0.2-0.8,0.5-1.5,0.4-2.3
		c0.4-0.6,0.4-1.3,0.4-1.9c0-0.1,0-0.3,0.1-0.4c0.4-0.9,0.3-1.9,0.1-2.9c-0.3-1-0.6-2-1-3c-0.2-0.3-0.3-0.5-0.6-0.8
		c-0.6-0.4-1.6-1-2.5-1.1c-0.4-0.1-0.9,0-1.4,0.2c-0.2,0.1-0.4,0-0.6-0.1c-0.4-0.2-0.9-0.2-1.4-0.2c-0.6,0-1,0.1-1.5,0.3
		c-0.3,0.1-0.7,0.1-1,0c-0.4-0.2-0.9-0.2-1.3-0.2c-0.5,0.1-0.9,0.1-1.4,0.1c-0.3,0-0.5,0.1-0.7,0.3c-0.5,0.5-1,1.1-1.4,1.7
		c-1,1.3-1.9,2.7-2.7,4.1c-0.3,0.6-0.7,1.2-1,1.7c-0.2,0.4-0.4,0.7-0.5,1.1c-0.3,0.7-0.6,1.3-1,1.9c-0.3,0.4-0.5,0.9-0.7,1.4
		c-0.5,0.7-0.7,1.2-1.2,2.4c-0.4,1.3-0.8,2.5-1,3.7c-0.2,0.7-0.3,1.2-0.4,1.9c-0.1,0.3-0.1,0.7-0.1,1c-0.1,0.9-0.1,1.7,0,2.5
		c0.1,0.9,0.4,1.8,0.8,2.6c0.3,0.5,0.5,0.9,1,1.2c0.7,0.4,1.3,0.9,1.8,1.5c0.2,0.2,0.3,0.4,0.5,0.5c0.6,0.3,1,0.8,1.5,1.2
		c0.2,0.2,0.5,0.3,0.8,0.3c0.4,0,0.9,0,1.3,0.2c0.3,0.2,0.7,0.2,1,0.2c0.7,0,1.3-0.2,1.9-0.4c0.5-0.1,0.9-0.4,1.2-0.9
		c0.1-0.2,0.2-0.4,0.3-0.5c0.8-0.6,1.4-1.3,2.1-1.8c1.1-0.8,2-1.9,3-2.9c0.2-0.2,0.2-0.3,0.1-0.6C246.4,42.6,246.3,42.4,246.5,42.1z
		 M247.9,25.9c0-0.6-0.1-1.2-0.1-1.8c-0.1-0.6-0.1-1-0.1-1.7c0-0.2,0.1-0.5,0.1-0.7c0.1-0.4-0.1-0.8-0.2-1.2c0-0.1,0.1-0.3,0.2-0.3
		c0.1,0,0.3,0.1,0.3,0.2c0.1,0.1,0.2,0.2,0.2,0.3c0.1,0.2,0.1,0.4,0.1,0.5c0.1,0.8,0.3,1.5,0.2,2.5c-0.1,0.7-0.1,1.4,0,2.2
		c0.1,0.9-0.1,1.9-0.5,2.7c-0.1,0.1-0.2,0.2-0.3,0.3c-0.1,0.1-0.3-0.2-0.3-0.4c0.1-0.1,0.1-0.2,0.1-0.4c0.1-0.4,0.2-0.9,0.3-1.3
		C248,26.6,247.9,26.2,247.9,25.9z M247.8,30.3c0.1,0.1,0.1,0.2,0.1,0.3c0,0.3-0.1,0.5-0.3,0.6c0-0.2,0-0.4,0-0.7
		C247.6,30.5,247.7,30.4,247.8,30.3z M247.5,31.3c0,0.1,0,0.2,0,0.3c0,0.1-0.1,0.2-0.1,0.2C247.1,31.6,247.4,31.5,247.5,31.3
		C247.4,31.3,247.5,31.3,247.5,31.3z M244.9,35.3c-0.5,1.2-1.2,2.3-1.9,3.4c-0.5,0.8-1.1,1.7-1.7,2.5c-0.3,0.4-0.5,0.8-1,0.9
		c-0.1,0.1-0.2,0.1-0.3,0.2c-0.4,0.7-1.2,1-1.7,1.6c-0.2,0.2-0.6,0.4-0.8,0.6c-0.4,0.3-0.8,0.7-1.3,0.9c-0.2,0.1-0.4,0.2-0.5,0.2
		c-0.3,0-0.7-0.2-0.8-0.5c-0.1-0.5-0.2-1-0.2-1.6c0-0.4,0-0.9-0.2-1.3c-0.1-0.2-0.1-0.4-0.1-0.6c0-0.6,0.2-1.3,0-1.9
		c-0.1-0.3,0.1-0.5,0.1-0.8c0.4-1.3,0.8-2.6,1.4-3.9c0.2-0.5,0.4-1.1,0.7-1.7c0.1-0.2,0.2-0.5,0.2-0.7c-0.1-0.5,0.1-0.9,0.3-1.3
		c0.6-1.2,1.2-2.4,1.8-3.5c0.3-0.6,0.7-1.2,1.1-1.9c0.7-1.2,1.6-2.1,2.4-3.1c0.6-0.7,1.3-1.2,2-1.7c0.3-0.2,0.6-0.3,0.9-0.4
		c0.4-0.1,0.8-0.2,1.2-0.2c0.4,0.3,0.3,0.7,0.4,1.1c0.1,0.2,0.1,0.4,0.2,0.7c0.2,1.9,0.2,3.9,0,5.7c-0.1,0.5-0.1,0.8-0.2,1.2
		c-0.2,0.4-0.3,0.9-0.4,1.3C246.1,32.3,245.6,33.8,244.9,35.3z M246.6,33.8c0.1,0,0.1,0.1,0.1,0.2c0,0.1,0,0.1,0,0.2
		c0,0.1-0.1,0.1-0.1,0.2c-0.1,0-0.2-0.1-0.2-0.2C246.4,33.9,246.5,33.8,246.6,33.8z"/>
	<path d="M312.3,33.8c-0.2,0.1-0.4,0.2-0.6,0.4c-1,0.7-2,1.2-3,1.8c-0.7,0.4-1.5,0.7-2.1,1.2c-1.2,1-2.6,1.4-4.2,1.7
		c-0.5,0.1-1.2-0.3-1.3-0.9c-0.1-0.4-0.1-0.8-0.2-1.2c-0.3-1-0.3-2-0.3-3.1c0-0.8,0-1.7,0.1-2.5c0-0.3,0.1-0.6,0.1-1
		c0.2-1.2,0.5-2.5,0.8-3.7c0.3-1.1,0.4-2.2,0.2-3.3c-0.1-0.6-0.4-1.2-1-1.4c-0.3-0.1-0.7-0.2-1.1-0.4c-0.5-0.2-1-0.3-1.5-0.3
		c-0.5,0-1,0-1.5,0c-0.3,0-0.7,0.2-0.9,0.4c-1.2,1-2.1,2.1-3.1,3.5c-1.7,2.4-2.8,3.8-4,5.4c-0.1,0.1-0.2,0.1-0.3,0.1
		c-0.1-0.1-0.1-0.2-0.1-0.4c0.5-1.5,0.9-2.9,1.3-4.3c0.4-1.4,1.1-3.9,1.8-5.2c0.1-0.1,0.1-0.2,0.1-0.4c0.4-1.2,0.9-2.5,1.4-3.7
		c0.4-1.2,1-2.4,1.2-3.7c0-0.2,0.1-0.5,0.2-0.7c0.4-0.7,0.6-1.4,0.4-2.2c-0.1-0.2,0-0.5,0.1-0.8c0.2-0.7,0.4-1.4,0.5-2.1
		c-0.2-0.3-0.3-0.5-0.4-0.8c0.1-0.4,0.3-0.8,0.3-1.2c0.1-0.6,0.1-1,0.1-1.6c0-0.3-0.1-0.6-0.2-0.9c-0.5-0.5-0.8-0.8-1.7-1
		c-0.7-0.2-1.4-0.3-2.1-0.2c-0.8,0.1-1.1,0.3-1.2,1c-0.1,0.5-0.2,1.1-0.4,1.5c-0.2,0.2-0.3,0.4-0.3,0.7c-0.2,0.8-0.4,1.4-0.8,2.2
		c-0.3,0.8-0.6,1.4-1,2.1c-0.4,0.9-0.8,1.8-1,2.8c-0.2,0.6-0.3,1.2-0.6,1.7c-0.7,1.7-1.3,3.2-1.9,5c-0.4,1.3-0.8,2.5-1.3,3.7
		c-0.4,1.4-0.9,2.7-1.3,4.2c-0.1,0.2-0.2,0.5-0.2,0.7c-0.3,1-0.6,2-0.9,3.1c-0.4,1.5-0.8,3-1.3,4.5c-0.2,0-0.5,0.1-0.7,0.1
		c-0.8,0.2-1.5,0.4-2.4,0.5c-0.9,0.1-1.8,0.4-2.7,0.5s-1.9,0.3-2.9,0.6c-0.2,0.1-0.5,0.1-0.8,0.2c-1.6,0.4-3.2,0.7-4.7,1.2
		c-0.2,0.1-0.4,0.1-0.6,0.1c-0.2,0-0.5-0.1-0.5-0.2c-0.1-1.3-0.1-2.4,0.1-3.6c0.1-0.4,0.1-0.8,0.2-1.2c0.1-0.7,0.2-1.4,0.4-2.1
		c0.1-0.5,0.2-1,0.3-1.5c0.2-1.2,0.5-2.5,0.9-3.6c0.1-0.3,0.1-0.5,0.1-0.8c0.1-0.4,0.1-0.8,0.2-1.2c0.1-0.5,0.3-0.7,0.3-1.1
		c0.1-0.4,0.1-0.8,0.3-1.1c0.3-0.7,0.5-1.3,0.7-2.1c0.1-0.3,0.5-0.6,0.9-0.6c0.3,0,0.5,0.2,0.6,0.4c0.1,0.3,0.2,0.7,0.2,1
		c0,0.4-0.1,0.8-0.4,1c-0.2,0.2-0.3,0.4-0.3,0.7c0.1,1.1-0.3,2.1-0.6,3.1c-0.2,0.8-0.4,1.5-0.6,2.3c0,0.2,0,0.3,0.1,0.4
		c0,0.1,0.1,0.2,0.1,0.2c0.1,0.1,0.3,0.1,0.4,0.1c0.2-0.1,0.3-0.3,0.3-0.4c0.3-0.8,0.8-1.2,1.5-1.4c0.5-0.2,0.8-0.5,1-0.9
		c0.3-0.8,0.7-1.5,1.4-2.1c0.6-0.4,1-1,1.1-1.8c0-0.2,0.1-0.4,0.2-0.6c0.5-0.7,0.5-1.5,0.5-2.3c-0.1-1.4-0.8-2.3-2-3
		c-0.5-0.3-1-0.5-1.7-0.4c-0.7,0-1.3-0.1-1.9,0.1c-0.1,0.1-0.3,0.1-0.4,0.1c-0.8-0.3-1.7-0.1-2.4,0.1c-0.9,0.2-1.7,0.3-2.5,0.5
		c-0.2,0-0.3,0.2-0.4,0.3c-0.1,0.1-0.2,0.3-0.3,0.5c-0.3,0.5-0.7,0.9-0.8,1.6c-0.1,0.4-0.4,0.8-0.7,1.2c-0.2,0.2-0.3,0.4-0.4,0.7
		c-0.4,1-0.8,1.9-0.9,3c-0.1,0.3-0.3,0.6-0.4,0.9c-0.2,0.3-0.2,0.6-0.2,0.9c0,1-0.2,1.9-0.5,2.8c-0.2,0.4-0.3,0.9-0.3,1.3
		c-0.1,0.8-0.2,1.5-0.3,2.3c-0.2,0.8-0.3,1.7-0.4,2.5c-0.2,1.2-0.2,2.4-0.1,3.6c0.1,0.7-0.1,1.4-0.1,2.1c-0.1,0.6-0.2,1.2-0.2,1.8
		c0,0.6,0.2,1.5,0.3,2c-0.4,0.6-1,1.3-1.5,1.8c-0.6,0.7-1.2,1.4-1.7,2.1c-1.2,1.6-2.2,3.2-3.2,5c-1,1.7-1.6,3.6-2.2,5.5
		c-0.1,0.1-0.1,0.3-0.1,0.4c-0.1,0.5-0.2,1-0.3,1.5c-0.1,0.3-0.1,0.6,0,0.8c0.2,0.7,0.2,1.3,0.2,2c0,0.5,0.1,1,0.2,1.5
		c0,0.2,0.2,0.4,0.3,0.4c0.3,0.2,0.3,0.4,0.2,0.7c-0.1,0.3-0.1,0.6,0.2,0.9c0.4,0.4,0.9,0.8,1.4,1.1c0.9,0.5,1.8,1.1,2.7,1.7
		c0.5,0.3,1,0.7,1.7,0.9c0.7,0.3,1.5,0.2,2.3,0.7c0.1,0.1,0.3,0.1,0.4,0.1c0.7-0.1,1.4,0,2.1-0.1c0.6-0.1,1.2-0.3,1.6-0.8
		c0.5-0.6,0.9-1.2,1.3-1.9c0.6-1.1,1-2.1,1.6-3.2c0.2-0.5,0.3-1,0.4-1.5c0.1-1.2-0.1-2.5,0.2-3.7c0.1-0.1,0-0.2,0-0.4
		c-0.2-1.2-0.2-2.5-0.2-3.7c0-1,0-2.1-0.1-3.1c-0.1-1.2-0.2-2.2-0.3-3.4c-0.1-1.3-0.1-2.5-0.1-3.7c0-0.3,0.1-0.6,0.2-0.8
		c0.7-1,1.4-2,2.6-2.3c0.3-0.1,0.6-0.2,0.8-0.4c0.4-0.4,0.9-0.6,1.4-0.7c0.3,0,0.7-0.2,0.9-0.3c1.8-0.9,3.7-1.3,5.7-1.7
		c0.9-0.2,1.7-0.5,2.5-1c0,0.1,0,0.1,0,0.2c-0.1,0.2-0.1,0.4-0.1,0.5c0,0.9-0.3,1.8-0.5,2.8c-0.2,1-0.4,1.9-0.7,2.9
		c-0.2,1-0.4,2-0.5,3.1c-0.1,0.5-0.1,1.1,0,1.8c0,0.3-0.1,0.5-0.1,0.8c-0.1,0.4,0.2,1,0.5,1.5c0.2,0.3,0.4,0.5,0.7,0.8
		c0.3,0.3,2.1,2,2.4,2.3c0.2,0.3,0.5,0.4,0.8,0.5c0.5,0.1,1,0.3,1.5,0.4c0.3,0.1,0.5-0.1,0.5-0.4c0-2.3,0.6-4.7,1.8-6.8
		c0.7-1.2,1.3-2.3,1.9-3.5c0.1-0.3,0.3-0.6,0.4-0.9c0.6-1.6,1.1-3,1.5-4.6c0.1-0.4,0.2-0.9,0.5-1.2c0.2-0.2,0.2-0.5,0.3-0.8
		c0.2-0.9,0.4-1.7,1.2-2.4c0.2-0.2,0.3-0.4,0.4-0.7c0.1-0.5,0.4-0.9,0.8-1.3c0.4-0.6,0.7-1,0.8-1.8c-0.4,0.2-0.6,0.4-0.8,0.8
		c-0.1,0.1-0.1,0.1-0.2,0c-0.1-0.1-0.1-0.3-0.1-0.4c0.1-0.3,0.2-0.4,0.3-0.6c0.1-0.2,0.3-0.2,0.5-0.2c0.1,0.1,0.2,0.2,0.2,0.3
		c0.2-0.1,0.3-0.1,0.3-0.2c0.1-0.5,0.3-0.9,0.8-1.2c0.1-0.1,0.1-0.3,0-0.3c-0.1-0.1-0.1-0.2-0.2-0.2c0.1-0.4,0.2-0.7,0.4-1
		c0.1-0.1,0.2-0.2,0.4-0.1c0.3,0.2,0.6,0.3,0.8,0.1c0.3-0.5,0.7-1,1-1.5c0.2-0.2,0.4-0.4,0.5-0.5c0.2-0.2,0.5,0,0.5,0.2
		c0,0.6-0.1,1.2-0.1,1.7c-0.1,0.5-0.1,1-0.2,1.5c-0.1,0.6-0.1,1-0.2,1.6c-0.1,1-0.1,2.1,0,3.1c0.2,1.8,0.5,3.2,1.8,4.5
		c0.4,0.4,0.9,0.9,1.2,1.5c0.6,1,1.5,1.4,2.5,1.8c0.3,0.2,0.7,0.3,1.1,0.3c0.3,0.1,0.7,0.1,1-0.1c0.3-0.1,0.7-0.2,1-0.2
		c0.8,0.1,1.4-0.2,2.1-0.6c0.3-0.2,0.6-0.4,0.9-0.7c0.5-0.4,1.1-1.1,1.4-1.9c0.2-0.6,0.4-1.1,0.6-1.7c0.6-0.4,1-0.8,1.6-1.2
		c0.5-0.4,0.9-0.9,1.2-1.5C312.7,33.9,312.5,33.7,312.3,33.8z M257.4,55.7c-0.3,1,0,2-0.3,3c-0.1,0.2-0.1,0.5,0,0.8
		c0.1,0.9-0.1,1.7-0.3,2.5c-0.2,0.6-0.5,1.1-0.4,1.7c-0.3,0.5-0.6,1.1-0.8,1.7c-0.2,0.5-0.5,0.7-1,0.7c-0.4,0-0.8-0.1-1.1-0.4
		c-0.4-0.3-0.7-0.8-0.9-1.2c-0.1-0.3-0.2-0.5-0.2-0.8c-0.1-0.4-0.1-0.8-0.1-1.2c-0.1-0.5-0.4-1.2-0.2-1.8c0.2-0.5,0.2-1,0.3-1.5
		c0.1-0.7,0.2-1.3,0.4-1.9c0.2-0.6,0.4-1.3,1-1.6c0.1-0.1,0.3-0.3,0.3-0.5c-0.1-0.8,0.6-1.3,1-1.9c0.1-0.1,0.2-0.2,0.3-0.2
		c0.5-0.1,0.9-0.4,1.3-0.8c0.1,0,0.2-0.1,0.2,0c0.1,0.1,0.2,0.1,0.2,0.2c0.1,0.2,0.1,0.4,0.1,0.6c0,0.7,0,1.4,0.2,2.1
		C257.4,55.3,257.4,55.5,257.4,55.7z"/>
</g>
</svg>
